<svg width="15" height="21" viewBox="0 0 15 21" fill="none" xmlns="http://www.w3.org/2000/svg">
<path d="M8.46161 19.3291C8.46161 19.8814 8.01389 20.3291 7.46161 20.3291C6.90932 20.3291 6.46161 19.8814 6.46161 19.3291L6.46161 2.07813C6.46161 1.52584 6.90932 1.07813 7.46161 1.07813C8.01389 1.07813 8.46161 1.52584 8.46161 2.07813L8.46161 19.3291Z" fill="white"/>
<path d="M14.6956 7.91309C15.046 8.3399 14.9846 8.96987 14.5579 9.32031C14.1311 9.67071 13.5011 9.60846 13.1507 9.18164L7.46223 2.25195L1.77277 9.18164C1.42232 9.60849 0.792394 9.67076 0.365546 9.32031C-0.061206 8.96994 -0.123316 8.33993 0.226874 7.91309L6.24836 0.579102L7.45539 1.56934L7.0218 1.21289L6.24836 0.579102L6.24934 0.578125C6.39352 0.4028 6.5748 0.256798 6.78449 0.155274C6.99451 0.0536057 7.22601 3.16234e-07 7.46223 3.26572e-07C7.69844 2.30027e-06 7.92994 0.053608 8.13996 0.155274L8.29133 0.240235C8.43761 0.332201 8.56697 0.446625 8.67512 0.578125L8.67609 0.579102L14.6956 7.91309Z" fill="white"/>
</svg>
