<svg width="188" height="55" viewBox="0 0 188 55" fill="none" xmlns="http://www.w3.org/2000/svg">
<path d="M24.5 16.25C24.5 22.4632 19.4632 27.5 13.25 27.5H2V16.25C2 10.0368 7.03679 5 13.25 5C19.4632 5 24.5 10.0368 24.5 16.25Z" fill="#FFD700"/>
<path d="M24.5 38.75C24.5 32.5368 29.5368 27.5 35.75 27.5H47V38.75C47 44.9632 41.9632 50 35.75 50C29.5368 50 24.5 44.9632 24.5 38.75Z" fill="#FFD700"/>
<path d="M2 38.75C2 44.9632 7.03679 50 13.25 50H24.5V38.75C24.5 32.5368 19.4632 27.5 13.25 27.5C7.03679 27.5 2 32.5368 2 38.75Z" fill="#FFD700"/>
<path d="M47 16.25C47 10.0368 41.9632 5 35.75 5H24.5V16.25C24.5 22.4632 29.5368 27.5 35.75 27.5C41.9632 27.5 47 22.4632 47 16.25Z" fill="#FFD700"/>
<path d="M60.44 24.168C59.272 24.168 58.216 23.968 57.272 23.568C56.344 23.168 55.608 22.592 55.064 21.84C54.52 21.088 54.24 20.2 54.224 19.176H57.824C57.872 19.864 58.112 20.408 58.544 20.808C58.992 21.208 59.6 21.408 60.368 21.408C61.152 21.408 61.768 21.224 62.216 20.856C62.664 20.472 62.888 19.976 62.888 19.368C62.888 18.872 62.736 18.464 62.432 18.144C62.128 17.824 61.744 17.576 61.28 17.4C60.832 17.208 60.208 17 59.408 16.776C58.32 16.456 57.432 16.144 56.744 15.84C56.072 15.52 55.488 15.048 54.992 14.424C54.512 13.784 54.272 12.936 54.272 11.88C54.272 10.888 54.52 10.024 55.016 9.288C55.512 8.552 56.208 7.992 57.104 7.608C58 7.208 59.024 7.008 60.176 7.008C61.904 7.008 63.304 7.432 64.376 8.28C65.464 9.112 66.064 10.28 66.176 11.784H62.48C62.448 11.208 62.2 10.736 61.736 10.368C61.288 9.984 60.688 9.792 59.936 9.792C59.28 9.792 58.752 9.96 58.352 10.296C57.968 10.632 57.776 11.12 57.776 11.76C57.776 12.208 57.92 12.584 58.208 12.888C58.512 13.176 58.88 13.416 59.312 13.608C59.76 13.784 60.384 13.992 61.184 14.232C62.272 14.552 63.16 14.872 63.848 15.192C64.536 15.512 65.128 15.992 65.624 16.632C66.12 17.272 66.368 18.112 66.368 19.152C66.368 20.048 66.136 20.88 65.672 21.648C65.208 22.416 64.528 23.032 63.632 23.496C62.736 23.944 61.672 24.168 60.44 24.168ZM81.833 10.704V24H78.449V22.32C78.017 22.896 77.449 23.352 76.745 23.688C76.057 24.008 75.305 24.168 74.489 24.168C73.449 24.168 72.529 23.952 71.729 23.52C70.929 23.072 70.297 22.424 69.833 21.576C69.385 20.712 69.161 19.688 69.161 18.504V10.704H72.521V18.024C72.521 19.08 72.785 19.896 73.313 20.472C73.841 21.032 74.561 21.312 75.473 21.312C76.401 21.312 77.129 21.032 77.657 20.472C78.185 19.896 78.449 19.08 78.449 18.024V10.704H81.833ZM92.5162 10.512C94.1002 10.512 95.3802 11.016 96.3562 12.024C97.3322 13.016 97.8202 14.408 97.8202 16.2V24H94.4602V16.656C94.4602 15.6 94.1962 14.792 93.6682 14.232C93.1402 13.656 92.4202 13.368 91.5082 13.368C90.5802 13.368 89.8442 13.656 89.3002 14.232C88.7722 14.792 88.5082 15.6 88.5082 16.656V24H85.1482V10.704H88.5082V12.36C88.9562 11.784 89.5242 11.336 90.2122 11.016C90.9162 10.68 91.6842 10.512 92.5162 10.512ZM106.103 24.216C105.015 24.216 104.039 24.024 103.175 23.64C102.311 23.24 101.623 22.704 101.111 22.032C100.615 21.36 100.343 20.616 100.295 19.8H103.679C103.743 20.312 103.991 20.736 104.423 21.072C104.871 21.408 105.423 21.576 106.079 21.576C106.719 21.576 107.215 21.448 107.567 21.192C107.935 20.936 108.119 20.608 108.119 20.208C108.119 19.776 107.895 19.456 107.447 19.248C107.015 19.024 106.319 18.784 105.359 18.528C104.367 18.288 103.551 18.04 102.911 17.784C102.287 17.528 101.743 17.136 101.279 16.608C100.831 16.08 100.607 15.368 100.607 14.472C100.607 13.736 100.815 13.064 101.231 12.456C101.663 11.848 102.271 11.368 103.055 11.016C103.855 10.664 104.791 10.488 105.863 10.488C107.447 10.488 108.711 10.888 109.655 11.688C110.599 12.472 111.119 13.536 111.215 14.88H107.999C107.951 14.352 107.727 13.936 107.327 13.632C106.943 13.312 106.423 13.152 105.767 13.152C105.159 13.152 104.687 13.264 104.351 13.488C104.031 13.712 103.871 14.024 103.871 14.424C103.871 14.872 104.095 15.216 104.543 15.456C104.991 15.68 105.687 15.912 106.631 16.152C107.591 16.392 108.383 16.64 109.007 16.896C109.631 17.152 110.167 17.552 110.615 18.096C111.079 18.624 111.319 19.328 111.335 20.208C111.335 20.976 111.119 21.664 110.687 22.272C110.271 22.88 109.663 23.36 108.863 23.712C108.079 24.048 107.159 24.216 106.103 24.216ZM118.006 13.464V19.896C118.006 20.344 118.11 20.672 118.318 20.88C118.542 21.072 118.91 21.168 119.422 21.168H120.982V24H118.87C116.038 24 114.622 22.624 114.622 19.872V13.464H113.038V10.704H114.622V7.416H118.006V10.704H120.982V13.464H118.006ZM126.758 12.768C127.19 12.064 127.75 11.512 128.438 11.112C129.142 10.712 129.942 10.512 130.838 10.512V14.04H129.95C128.894 14.04 128.094 14.288 127.55 14.784C127.022 15.28 126.758 16.144 126.758 17.376V24H123.398V10.704H126.758V12.768ZM145.461 17.064C145.461 17.544 145.429 17.976 145.365 18.36H135.645C135.725 19.32 136.061 20.072 136.653 20.616C137.245 21.16 137.973 21.432 138.837 21.432C140.085 21.432 140.973 20.896 141.501 19.824H145.125C144.741 21.104 144.005 22.16 142.917 22.992C141.829 23.808 140.493 24.216 138.909 24.216C137.629 24.216 136.477 23.936 135.453 23.376C134.445 22.8 133.653 21.992 133.077 20.952C132.517 19.912 132.237 18.712 132.237 17.352C132.237 15.976 132.517 14.768 133.077 13.728C133.637 12.688 134.421 11.888 135.429 11.328C136.437 10.768 137.597 10.488 138.909 10.488C140.173 10.488 141.301 10.76 142.293 11.304C143.301 11.848 144.077 12.624 144.621 13.632C145.181 14.624 145.461 15.768 145.461 17.064ZM141.981 16.104C141.965 15.24 141.653 14.552 141.045 14.04C140.437 13.512 139.693 13.248 138.813 13.248C137.981 13.248 137.277 13.504 136.701 14.016C136.141 14.512 135.797 15.208 135.669 16.104H141.981ZM147.05 17.304C147.05 15.96 147.314 14.768 147.842 13.728C148.386 12.688 149.114 11.888 150.026 11.328C150.954 10.768 151.986 10.488 153.122 10.488C154.114 10.488 154.978 10.688 155.714 11.088C156.466 11.488 157.066 11.992 157.514 12.6V10.704H160.898V24H157.514V22.056C157.082 22.68 156.482 23.2 155.714 23.616C154.962 24.016 154.09 24.216 153.098 24.216C151.978 24.216 150.954 23.928 150.026 23.352C149.114 22.776 148.386 21.968 147.842 20.928C147.314 19.872 147.05 18.664 147.05 17.304ZM157.514 17.352C157.514 16.536 157.354 15.84 157.034 15.264C156.714 14.672 156.282 14.224 155.738 13.92C155.194 13.6 154.61 13.44 153.986 13.44C153.362 13.44 152.786 13.592 152.258 13.896C151.73 14.2 151.298 14.648 150.962 15.24C150.642 15.816 150.482 16.504 150.482 17.304C150.482 18.104 150.642 18.808 150.962 19.416C151.298 20.008 151.73 20.464 152.258 20.784C152.802 21.104 153.378 21.264 153.986 21.264C154.61 21.264 155.194 21.112 155.738 20.808C156.282 20.488 156.714 20.04 157.034 19.464C157.354 18.872 157.514 18.168 157.514 17.352ZM180.691 10.512C182.323 10.512 183.635 11.016 184.627 12.024C185.635 13.016 186.139 14.408 186.139 16.2V24H182.779V16.656C182.779 15.616 182.515 14.824 181.987 14.28C181.459 13.72 180.739 13.44 179.827 13.44C178.915 13.44 178.187 13.72 177.643 14.28C177.115 14.824 176.851 15.616 176.851 16.656V24H173.491V16.656C173.491 15.616 173.227 14.824 172.699 14.28C172.171 13.72 171.451 13.44 170.539 13.44C169.611 13.44 168.875 13.72 168.331 14.28C167.803 14.824 167.539 15.616 167.539 16.656V24H164.179V10.704H167.539V12.312C167.971 11.752 168.523 11.312 169.195 10.992C169.883 10.672 170.635 10.512 171.451 10.512C172.491 10.512 173.419 10.736 174.235 11.184C175.051 11.616 175.683 12.24 176.131 13.056C176.563 12.288 177.187 11.672 178.003 11.208C178.835 10.744 179.731 10.512 180.691 10.512Z" fill="#243342"/>
<path d="M60.512 30.248C62.272 30.248 63.816 30.592 65.144 31.28C66.488 31.968 67.52 32.952 68.24 34.232C68.976 35.496 69.344 36.968 69.344 38.648C69.344 40.328 68.976 41.8 68.24 43.064C67.52 44.312 66.488 45.28 65.144 45.968C63.816 46.656 62.272 47 60.512 47H54.656V30.248H60.512ZM60.392 44.144C62.152 44.144 63.512 43.664 64.472 42.704C65.432 41.744 65.912 40.392 65.912 38.648C65.912 36.904 65.432 35.544 64.472 34.568C63.512 33.576 62.152 33.08 60.392 33.08H58.016V44.144H60.392ZM73.5631 32.12C72.9711 32.12 72.4751 31.936 72.0751 31.568C71.6911 31.184 71.4991 30.712 71.4991 30.152C71.4991 29.592 71.6911 29.128 72.0751 28.76C72.4751 28.376 72.9711 28.184 73.5631 28.184C74.1551 28.184 74.6431 28.376 75.0271 28.76C75.4271 29.128 75.6271 29.592 75.6271 30.152C75.6271 30.712 75.4271 31.184 75.0271 31.568C74.6431 31.936 74.1551 32.12 73.5631 32.12ZM75.2191 33.704V47H71.8591V33.704H75.2191ZM83.7468 33.488C84.7388 33.488 85.6108 33.688 86.3628 34.088C87.1148 34.472 87.7068 34.976 88.1388 35.6V33.704H91.5228V47.096C91.5228 48.328 91.2748 49.424 90.7788 50.384C90.2828 51.36 89.5388 52.128 88.5468 52.688C87.5548 53.264 86.3548 53.552 84.9468 53.552C83.0588 53.552 81.5068 53.112 80.2908 52.232C79.0908 51.352 78.4108 50.152 78.2508 48.632H81.5868C81.7628 49.24 82.1388 49.72 82.7148 50.072C83.3068 50.44 84.0188 50.624 84.8508 50.624C85.8268 50.624 86.6188 50.328 87.2268 49.736C87.8348 49.16 88.1388 48.28 88.1388 47.096V45.032C87.7068 45.656 87.1068 46.176 86.3388 46.592C85.5868 47.008 84.7228 47.216 83.7468 47.216C82.6268 47.216 81.6028 46.928 80.6748 46.352C79.7468 45.776 79.0108 44.968 78.4668 43.928C77.9388 42.872 77.6748 41.664 77.6748 40.304C77.6748 38.96 77.9388 37.768 78.4668 36.728C79.0108 35.688 79.7388 34.888 80.6508 34.328C81.5788 33.768 82.6108 33.488 83.7468 33.488ZM88.1388 40.352C88.1388 39.536 87.9788 38.84 87.6588 38.264C87.3388 37.672 86.9068 37.224 86.3628 36.92C85.8188 36.6 85.2348 36.44 84.6108 36.44C83.9868 36.44 83.4108 36.592 82.8828 36.896C82.3548 37.2 81.9228 37.648 81.5868 38.24C81.2668 38.816 81.1068 39.504 81.1068 40.304C81.1068 41.104 81.2668 41.808 81.5868 42.416C81.9228 43.008 82.3548 43.464 82.8828 43.784C83.4268 44.104 84.0028 44.264 84.6108 44.264C85.2348 44.264 85.8188 44.112 86.3628 43.808C86.9068 43.488 87.3388 43.04 87.6588 42.464C87.9788 41.872 88.1388 41.168 88.1388 40.352ZM96.5084 32.12C95.9164 32.12 95.4204 31.936 95.0204 31.568C94.6364 31.184 94.4444 30.712 94.4444 30.152C94.4444 29.592 94.6364 29.128 95.0204 28.76C95.4204 28.376 95.9164 28.184 96.5084 28.184C97.1004 28.184 97.5884 28.376 97.9724 28.76C98.3724 29.128 98.5724 29.592 98.5724 30.152C98.5724 30.712 98.3724 31.184 97.9724 31.568C97.5884 31.936 97.1004 32.12 96.5084 32.12ZM98.1644 33.704V47H94.8044V33.704H98.1644ZM105.396 36.464V42.896C105.396 43.344 105.5 43.672 105.708 43.88C105.932 44.072 106.3 44.168 106.812 44.168H108.372V47H106.26C103.428 47 102.012 45.624 102.012 42.872V36.464H100.428V33.704H102.012V30.416H105.396V33.704H108.372V36.464H105.396ZM109.925 40.304C109.925 38.96 110.189 37.768 110.717 36.728C111.261 35.688 111.989 34.888 112.901 34.328C113.829 33.768 114.861 33.488 115.997 33.488C116.989 33.488 117.853 33.688 118.589 34.088C119.341 34.488 119.941 34.992 120.389 35.6V33.704H123.773V47H120.389V45.056C119.957 45.68 119.357 46.2 118.589 46.616C117.837 47.016 116.965 47.216 115.973 47.216C114.853 47.216 113.829 46.928 112.901 46.352C111.989 45.776 111.261 44.968 110.717 43.928C110.189 42.872 109.925 41.664 109.925 40.304ZM120.389 40.352C120.389 39.536 120.229 38.84 119.909 38.264C119.589 37.672 119.157 37.224 118.613 36.92C118.069 36.6 117.485 36.44 116.861 36.44C116.237 36.44 115.661 36.592 115.133 36.896C114.605 37.2 114.173 37.648 113.837 38.24C113.517 38.816 113.357 39.504 113.357 40.304C113.357 41.104 113.517 41.808 113.837 42.416C114.173 43.008 114.605 43.464 115.133 43.784C115.677 44.104 116.253 44.264 116.861 44.264C117.485 44.264 118.069 44.112 118.613 43.808C119.157 43.488 119.589 43.04 119.909 42.464C120.229 41.872 120.389 41.168 120.389 40.352ZM130.414 29.24V47H127.054V29.24H130.414Z" fill="#243342"/>
</svg>
