<svg width="100" height="14" viewBox="0 0 100 14" fill="none" xmlns="http://www.w3.org/2000/svg">
<path d="M0 13.3333L1.85417 10.5083H12.5958C13.2042 10.5083 13.6042 10.1333 13.6042 9.55V7.91667H4.36667C1.61667 7.91667 0.395833 6.75833 0.395833 4.1875V3.07917C0.395833 1.1625 1.5875 0.00416835 3.46667 0.00416835H3.675V4.1375C3.675 4.72083 4.075 5.09584 4.68333 5.09584H13.6292C15.6708 5.09584 16.8833 6.25417 16.8833 8.14583V9.60417C16.8833 12.1042 15.5917 13.3375 12.9167 13.3375L0 13.3333ZM64.3875 10.4583H72.6958C74.0708 10.4583 74.9458 9.65417 74.9458 8.39167V4.94167C74.9458 3.67917 74.0708 2.875 72.6958 2.875H64.3875V10.4583ZM61.0542 13.3333V0H72.7792C76.2708 0 78.2792 1.91667 78.2792 5.09167V8.24167C78.2792 11.4167 76.2708 13.3333 72.7792 13.3333H61.0542ZM44.8917 10.4583H51.9083C53.175 10.4583 53.9958 9.70417 53.9958 8.52083V4.8125C53.9958 3.62917 53.175 2.875 51.9083 2.875H44.8917C43.625 2.875 42.8042 3.62917 42.8042 4.8125V8.52083C42.8042 9.70417 43.625 10.4583 44.8917 10.4583ZM51.9875 13.3333H44.8125C41.425 13.3333 39.4667 11.4667 39.4667 8.36667V4.96667C39.4667 1.86667 41.425 0 44.8125 0H51.9875C55.375 0 57.3333 1.86667 57.3333 4.96667V8.36667C57.3333 11.4667 55.375 13.3333 51.9875 13.3333ZM79.65 13.3333L87.5083 0H92.1417L100 13.3333H96.1875L94.8375 11.0417H88.1417L86.3458 8.31667L83.3792 13.3333H79.65ZM86.425 8.16667H93.1458L89.7833 2.49583L86.425 8.16667ZM6.95833 2.77083L5.05417 0H16.5667L14.7125 2.77083H6.95833ZM20.5542 13.3333V0H23.8875V5.19167H28.3083L34.05 0H38.4708L31.1667 6.625L38.6042 13.3333H33.9167L28.1708 8.06667H23.8875V13.3333H20.5542Z" fill="#576F75"/>
</svg>
