<svg width="50" height="74" viewBox="0 0 50 74" fill="none" xmlns="http://www.w3.org/2000/svg">
<path d="M28.2297 14.3962C28.3914 14.3856 28.5535 14.4108 28.7043 14.4699C28.8551 14.529 28.9908 14.6206 29.1016 14.7381C29.2125 14.8556 29.2957 14.9961 29.3453 15.1494C29.395 15.3026 29.4098 15.465 29.3887 15.6246L29.3998 16.6367C29.4035 18.8113 29.3924 20.9822 29.4072 23.1531C29.4219 24.7446 29.7025 25.049 31.2527 25.2433C35.121 25.5968 39.0162 25.5403 42.8724 25.0746C44.8704 24.9369 46.8319 24.4735 48.6785 23.7032C49.1336 23.5642 49.5182 23.2581 49.7541 22.8473C49.99 22.4365 50.0594 21.9518 49.9483 21.4919C49.2137 16.4158 46.9286 11.686 43.4017 7.94144C39.8748 4.19685 35.276 1.61792 30.2266 0.553015C25.7435 -0.415171 21.0765 -0.107588 16.7614 1.44044C12.9724 2.75126 9.56015 4.95589 6.8175 7.86513C2.59545 12.0369 0.153812 17.6646 0 23.5785C0.0799281 30.6934 2.02101 37.6653 5.63265 43.8097C6.0737 44.7081 6.77969 45.4518 7.65665 45.9418C8.53362 46.4318 9.53999 46.6448 10.5418 46.5526C12.9521 46.4939 15.3661 46.5379 17.7764 46.5379V46.5269H25.4687C26.3915 46.5269 27.1187 46.747 27.1113 47.8911C27.0928 50.5534 27.1113 53.2083 27.1002 55.8706C27.0928 56.6774 26.864 57.4548 25.8969 57.4621C24.9225 57.4695 24.6899 56.6957 24.6788 55.8853C24.6604 54.6128 24.6788 53.3403 24.6788 52.0679C24.6788 50.414 24.4094 50.0253 22.7484 49.721C19.8802 49.2566 16.9573 49.2319 14.0816 49.6476C13.0651 49.7296 12.0683 49.9722 11.1287 50.3664C10.3462 50.7331 10.0362 51.2648 10.4163 52.0789C10.8113 52.926 11.1767 53.7914 11.6455 54.6018C15.4366 60.9405 19.6618 67.0128 24.2913 72.7758C24.8597 73.5055 25.2989 73.5202 25.8821 72.8124C27.1703 71.2503 28.5213 69.7358 29.7947 68.1626C34.7889 62.1542 39.2091 55.6967 42.9979 48.8739C45.5272 44.4366 47.3852 39.6536 48.5124 34.6787C48.7624 34.0415 48.8599 33.3553 48.7972 32.6743C48.7344 31.9933 48.5132 31.3361 48.1509 30.7547C47.7886 30.1732 47.2953 29.6833 46.7097 29.3238C46.1242 28.9643 45.4625 28.7449 44.777 28.683C42.754 28.2382 40.6842 28.0387 38.6128 28.089C35.2576 28.067 31.9024 28.078 28.5471 28.0816C27.6428 28.0816 26.971 27.8249 26.971 26.7688C26.971 23.0651 26.9636 19.354 26.9784 15.6466C26.9784 14.8546 27.3623 14.3632 28.2297 14.3962Z" fill="#576F75"/>
</svg>
