<svg width="100" height="24" viewBox="0 0 100 24" fill="none" xmlns="http://www.w3.org/2000/svg">
<path d="M58.0125 20.8292C58.0125 21.0208 58.075 21.1292 58.1833 21.1292C58.2712 21.1173 58.3544 21.0828 58.425 21.0292L89.5917 0.80417C90.1181 0.435449 90.7491 0.245569 91.3917 0.262503H98.2417C99.2917 0.262503 100 0.962503 100 2.0125V15.0917C100 16.675 99.65 17.5917 98.25 18.4292L89.9417 23.4292C89.859 23.4865 89.7627 23.521 89.6625 23.5292C89.5625 23.5292 89.4625 23.45 89.4625 23.1625V7.9C89.4625 7.72083 89.4125 7.60417 89.2917 7.60417C89.2033 7.61401 89.1195 7.64868 89.05 7.70417L66.275 22.5C65.7594 22.8509 65.1487 23.0356 64.525 23.0292H49.425C48.3667 23.0292 47.6667 22.3292 47.6667 21.2708V2.42083C47.6667 2.28333 47.6042 2.15417 47.4833 2.15417C47.3967 2.16579 47.3147 2.20031 47.2458 2.25417L32.2167 11.2667C32.0667 11.3667 32.025 11.4375 32.025 11.5083C32.025 11.5667 32.0583 11.6292 32.1583 11.7375L42.8958 22.4667C43.0375 22.6083 43.1375 22.7167 43.1375 22.8375C43.1375 22.9375 42.975 23.0167 42.7875 23.0167H33.0833C32.3208 23.0167 31.7333 22.9083 31.3208 22.4958L24.8125 15.9958C24.7879 15.9663 24.7574 15.9421 24.7229 15.9249C24.6885 15.9077 24.6509 15.8978 24.6125 15.8958C24.5417 15.8998 24.473 15.9213 24.4125 15.9583L13.5375 22.5C13.0175 22.8493 12.4012 23.0271 11.775 23.0083H1.77083C0.7 23.0167 0 22.3083 0 21.2625V8.42917C0 6.84584 0.35 5.92917 1.75833 5.09584L10.125 0.0666698C10.1899 0.0254301 10.2648 0.00240149 10.3417 0C10.475 0 10.5417 0.125002 10.5417 0.416668V17.6C10.5417 17.7792 10.5833 17.8625 10.7125 17.8625C10.8023 17.8485 10.8878 17.8143 10.9625 17.7625L39.1958 0.766667C39.7432 0.39823 40.3952 0.216966 41.0542 0.250002H56.2542C57.3042 0.250002 58.0125 0.950002 58.0125 2L58.0042 20.825L58.0125 20.8292Z" fill="#576F75"/>
</svg>
