<svg width="100" height="24" viewBox="0 0 100 24" fill="none" xmlns="http://www.w3.org/2000/svg">
<path d="M69.125 0.716666V22.8167H72.4417V0.716666H69.125ZM33.7208 0.34167C27.2625 0.34167 22.2542 5.0375 22.2542 11.7667C22.2542 18.7958 27.2625 23.1917 33.7208 23.1917C40.1792 23.1917 45.1958 18.7958 45.1833 11.7667C45.1956 10.2597 44.9072 8.76546 44.3351 7.37131C43.7629 5.97716 42.9185 4.71112 41.8511 3.64726C40.7838 2.58341 39.515 1.7431 38.1189 1.17551C36.7229 0.60792 35.2277 0.324444 33.7208 0.34167ZM41.875 11.7667C41.875 16.7458 38.225 20.0458 33.7208 20.0458C29.2125 20.0458 25.5625 16.7458 25.5625 11.7667C25.5625 6.875 29.2125 3.4875 33.7208 3.4875C38.2208 3.4875 41.875 6.875 41.875 11.7667ZM0 0V22.8167H3.38333V7.7375L20.9583 23.5292V18.8L0 0ZM47.675 11.7667L59.975 22.8167H64.9083L52.5917 11.7667L64.9083 0.716666H59.975L47.675 11.7667ZM100 22.8167H96.3542L93.6875 17.9208H81.6125L78.9458 22.8167H75.3L79.7167 14.6583H91.9542L85.85 3.325L87.65 0L100 22.8167Z" fill="#576F75"/>
</svg>
