<svg width="100" height="39" viewBox="0 0 100 39" fill="none" xmlns="http://www.w3.org/2000/svg">
<path d="M85.0833 0V38.25H91.9625V0H85.0833ZM0 0.541667V7.77917H7.2375V0.537501L0 0.541667ZM40.75 2.00833V27.2292C40.75 29.3667 40.9333 31.1667 41.2917 32.6125C41.6542 34.0292 42.2708 35.1875 43.125 36.0625C43.9708 36.9375 45.1042 37.5583 46.4708 37.9417C47.8625 38.3292 49.6125 38.5083 51.7 38.5083H52.6V32.1208C51.6 32.1208 50.7458 32.0708 50.1292 31.9667C49.5236 31.9093 48.9531 31.6562 48.5042 31.2458C48.1091 30.8081 47.8576 30.2599 47.7833 29.675C47.6681 28.8385 47.6165 27.9944 47.6292 27.15V18.0583H52.6V12.1583H47.6292V2.00833H40.75ZM26.1458 11.6417C24.4958 11.6417 22.9792 11.975 21.6375 12.6458C20.275 13.3167 19.1375 14.2458 18.2125 15.4292L17.85 15.9167V12.1583H11.075V38.225H17.9042V24.8333C17.9792 22.3833 18.5708 20.5833 19.7083 19.4208C20.9167 18.1833 22.3833 17.5667 24.0583 17.5667C26.0417 17.5667 27.5625 18.1875 28.5667 19.3708C29.5458 20.5542 30.0625 22.2292 30.0625 24.3708V38.2208H36.9917V23.4375C37.0167 19.7292 36.0375 16.7917 34.1333 14.7292C32.225 12.6667 29.55 11.6375 26.1458 11.6375V11.6417ZM68.0833 11.6667C66.3013 11.6596 64.5353 12.0041 62.8865 12.6804C61.2378 13.3568 59.7387 14.3518 58.475 15.6083C57.2667 16.8167 56.2875 18.2625 55.5917 19.9125C54.8739 21.5877 54.5134 23.3943 54.5333 25.2167C54.5333 27.1 54.8667 28.875 55.5375 30.525C56.2083 32.1708 57.1625 33.6167 58.3458 34.825C59.5292 36.0333 61 37.0167 62.7 37.7125C64.4 38.4333 66.2833 38.7958 68.2917 38.7958C74.1125 38.7958 77.7167 36.1417 79.8833 33.6708L74.9375 29.9042C73.9042 31.1417 71.4333 32.8167 68.3417 32.8167C66.4083 32.8167 64.8125 32.3792 63.6 31.4792C62.3866 30.5849 61.5149 29.303 61.1292 27.8458L61.05 27.6125H81.5292V25.1667C81.5292 23.2875 81.1958 21.5333 80.55 19.8875C79.901 18.2974 78.9677 16.8389 77.7958 15.5833C76.593 14.3396 75.146 13.358 73.5458 12.7C71.8129 11.9922 69.9551 11.6408 68.0833 11.6667ZM0.179167 12.1583V38.225H7.05833V12.1583H0.179167ZM68.0042 17.5167C72.7208 17.5167 74.9375 20.8375 74.9375 22.7458L61.1042 22.7708C61.1042 20.8625 63.2917 17.5417 68.0042 17.5167ZM97.475 33.4083C96.8053 33.4083 96.1631 33.6744 95.6896 34.1479C95.216 34.6214 94.95 35.2637 94.95 35.9333C94.95 36.603 95.216 37.2453 95.6896 37.7188C96.1631 38.1923 96.8053 38.4583 97.475 38.4583C98.1447 38.4583 98.7869 38.1923 99.2604 37.7188C99.734 37.2453 100 36.603 100 35.9333C100 35.2637 99.734 34.6214 99.2604 34.1479C98.7869 33.6744 98.1447 33.4083 97.475 33.4083ZM97.4417 33.8458C97.4444 33.8458 97.4472 33.8458 97.45 33.8458C97.7239 33.8458 97.9952 33.8999 98.2482 34.0048C98.5012 34.1098 98.7311 34.2636 98.9246 34.4575C99.1181 34.6514 99.2715 34.8816 99.3759 35.1348C99.4804 35.388 99.5339 35.6594 99.5333 35.9333C99.5333 36.2069 99.4794 36.4778 99.3747 36.7306C99.27 36.9834 99.1166 37.213 98.9231 37.4065C98.7297 37.5999 98.5 37.7534 98.2473 37.8581C97.9945 37.9628 97.7236 38.0167 97.45 38.0167C96.8975 38.0167 96.3676 37.7972 95.9769 37.4065C95.5862 37.0158 95.3667 36.4859 95.3667 35.9333C95.3667 35.3822 95.585 34.8536 95.9739 34.4631C96.3628 34.0727 96.8906 33.848 97.4417 33.8458ZM96.4708 34.4917V37.4042H97.0125V36.2167H97.4L98.1208 37.4042H98.6875L97.9375 36.1667C98.1237 36.1491 98.2978 36.0665 98.4292 35.9333C98.5542 35.8083 98.6375 35.625 98.6375 35.3667C98.6375 35.0833 98.5542 34.8792 98.375 34.725C98.2208 34.5667 97.9375 34.4917 97.6042 34.4917H96.4708ZM97.0125 34.9042H97.6542C97.7333 34.9042 97.8083 34.9292 97.8875 34.9542C97.9538 34.9754 98.0091 35.0218 98.0417 35.0833C98.0958 35.1375 98.0917 35.2125 98.0917 35.3167C98.0928 35.3959 98.0757 35.4743 98.0417 35.5458C97.9969 35.5963 97.945 35.6398 97.8875 35.675C97.8083 35.7 97.7333 35.7292 97.6542 35.7292H97.0125V34.9042Z" fill="#576F75"/>
</svg>
