<svg width="100" height="13" viewBox="0 0 100 13" fill="none" xmlns="http://www.w3.org/2000/svg">
<path d="M21.4375 3.30833H28.25C28.9861 3.30386 29.6942 3.5903 30.2202 4.10533C30.7461 4.62036 31.0474 5.32229 31.0583 6.05833V12.3458H20.8708C20.4214 12.3481 19.9894 12.1722 19.6692 11.8568C19.3491 11.5413 19.1669 11.1119 19.1625 10.6625V8.47917C19.168 8.06069 19.3389 7.6614 19.638 7.36861C19.937 7.07581 20.3398 6.91333 20.7583 6.91667H26.4L25.8 8.19167H21.6417C21.4625 8.19167 21.2583 8.33333 21.2583 8.52917V10.2458C21.2583 10.4417 21.4625 10.5875 21.6417 10.5875H28.85V6.4625C28.85 5.66667 28.1458 5.05416 27.3625 5.05416H20.6042L21.4375 3.30833ZM77.3833 0.0291665V12.3583H67.4542C67.0054 12.3606 66.574 12.1853 66.254 11.8707C65.934 11.5562 65.7513 11.1279 65.7458 10.6792V6.05417C65.7579 5.31812 66.0602 4.61663 66.5869 4.10238C67.1137 3.58813 67.8222 3.30274 68.5583 3.30833H74.2125L73.3792 5.06667H69.4292C68.6458 5.06667 67.9417 5.67917 67.9417 6.47083V10.2625C67.9417 10.4542 68.1458 10.5958 68.325 10.5958H75.175V0.0291665H77.3833ZM42.5 12.3583H44.6958V6.06666C44.6838 5.33135 44.382 4.63049 43.8562 4.11635C43.3304 3.60222 42.6229 3.31634 41.8875 3.32083H37.2167L36.3833 5.07917H41.0125C41.7958 5.07917 42.5 5.69167 42.5 6.48333V12.3583ZM33.3542 0.0249982V12.3583H35.55V0.0249982H33.3542ZM15.0208 12.3583H17.2167V6.06666C17.2046 5.33135 16.9029 4.63049 16.377 4.11635C15.8512 3.60222 15.1437 3.31634 14.4083 3.32083H0V12.3583H2.19167V5.40417C2.19167 5.20833 2.4 5.06667 2.57917 5.06667H7.12083C7.3 5.06667 7.50417 5.20833 7.50417 5.40417V12.3583H9.7V5.40417C9.7 5.20833 9.90417 5.06667 10.0833 5.06667H13.5333C14.3167 5.06667 15.0208 5.67917 15.0208 6.47083V12.3583ZM88.8542 3.30833H83.3333C82.5972 3.30386 81.8891 3.5903 81.3632 4.10533C80.8372 4.62036 80.536 5.32229 80.525 6.05833V12.3458H82.7208V6.47083C82.7208 5.67917 83.425 5.06667 84.2083 5.06667H88.0167L88.8542 3.30833ZM60.7167 3.30833C61.4535 3.30275 62.1627 3.58871 62.6895 4.10386C63.2164 4.61901 63.5182 5.32156 63.5292 6.05833V12.3458H61.3333V6.47083C61.3333 5.67917 60.625 5.06667 59.8458 5.06667H54.5625V12.3583H52.3667V3.32083C55.1375 3.32083 57.9208 3.30833 60.7167 3.30833ZM47.425 3.87917L49.6208 2.60417V12.3458H47.4292L47.425 3.87917ZM49.6333 1.34166V0H47.4417V2.60417L49.6333 1.34166ZM90.3917 3.30833H97.1917C97.9278 3.30386 98.6359 3.5903 99.1618 4.10533C99.6878 4.62036 99.989 5.32229 100 6.05833V12.3458H89.8125C89.3631 12.3481 88.931 12.1722 88.6109 11.8568C88.2908 11.5413 88.1086 11.1119 88.1042 10.6625V8.47917C88.1097 8.06069 88.2806 7.6614 88.5797 7.36861C88.8787 7.07581 89.2815 6.91333 89.7 6.91667H95.3417L94.7417 8.19167H90.5833C90.4042 8.19167 90.2 8.33333 90.2 8.52917V10.2458C90.2 10.4417 90.4042 10.5875 90.5833 10.5875H97.7917V6.4625C97.7917 5.66667 97.0875 5.05416 96.3042 5.05416H89.5458L90.3917 3.30833Z" fill="#576F75"/>
</svg>
