<svg width="100" height="24" viewBox="0 0 100 24" fill="none" xmlns="http://www.w3.org/2000/svg">
<path d="M11.875 15.1581C6.82917 15.1081 3.575 12.7164 3.575 9.05394C3.575 5.39144 6.82917 3.00394 11.8667 2.94977C16.9083 3.00394 20.1667 5.39977 20.1667 9.05394C20.1667 12.7081 16.9083 15.1081 11.875 15.1581ZM12.0167 -0.000230154H11.7125C4.81667 0.11227 0 3.8331 0 9.04977C0 14.2664 4.81667 17.9956 11.7125 18.1081H12.0167C18.9125 17.9956 23.7292 14.2706 23.7292 9.04977C23.7292 3.82894 18.9125 0.11227 12.0167 -0.000230154ZM88.1417 15.1581C83.1 15.1081 79.8417 12.7123 79.8417 9.05394C79.8417 5.3956 83.1 3.00394 88.1375 2.94977C93.1792 3.00394 96.4333 5.39977 96.4333 9.05394C96.4333 12.7081 93.1792 15.1081 88.1417 15.1581ZM88.2875 -0.000230154H87.9833C81.0875 0.11227 76.2708 3.8331 76.2708 9.05394C76.2708 14.2748 81.0875 17.9998 87.9792 18.1123H88.2875C95.1833 17.9998 100 14.2748 100 9.04977C100 3.82477 95.1833 0.11227 88.2875 -0.000230154ZM62.7625 15.1581C57.7208 15.1081 54.4708 12.7123 54.4708 9.05394C54.4708 5.3956 57.7208 3.00394 62.7625 2.94977C67.8042 3.00394 71.0583 5.39977 71.0583 9.05394C71.0583 12.7081 67.8042 15.1081 62.7667 15.1581H62.7625ZM62.9125 -0.000230154H62.6083C59.3208 0.0539365 56.5083 0.924771 54.4625 2.39144V0.849772H50.8917V23.7664H54.4625V15.7206C56.5042 17.1831 59.3208 18.0539 62.6042 18.1123H62.9125C69.8083 17.9998 74.6208 14.2748 74.6208 9.05394C74.6208 3.8331 69.8083 0.11227 62.9125 -0.000230154ZM37.3125 15.1581C32.2708 15.1081 29.0208 12.7123 29.0208 9.05394C29.0208 5.3956 32.2708 3.00394 37.3125 2.94977C42.3542 3.00394 45.6083 5.39977 45.6083 9.05394C45.6083 12.7081 42.3542 15.1081 37.3167 15.1581H37.3125ZM37.4667 -0.000230154H37.1667C33.8792 0.0539365 31.0667 0.924771 29.0208 2.39144V0.849772H25.4542V23.7664H29.0208V15.7206C31.0667 17.1831 33.8792 18.0539 37.1667 18.1123C37.2681 18.1133 37.3694 18.1133 37.4708 18.1123C44.3667 17.9998 49.1833 14.2748 49.1833 9.05394C49.1833 3.8331 44.3667 0.11227 37.475 -0.000230154H37.4667Z" fill="#576F75"/>
</svg>
