<svg width="100" height="34" viewBox="0 0 100 34" fill="none" xmlns="http://www.w3.org/2000/svg">
<path d="M25.0038 0.945801C27.4815 0.945801 29.4903 2.95395 29.4903 5.43191C29.4903 7.91019 27.4815 9.91835 25.0038 9.91835H4.48658C2.00862 9.91835 -1.52588e-05 7.91019 -1.52588e-05 5.43191C-1.52588e-05 2.95395 2.00862 0.945801 4.48642 0.945801H25.0038Z" fill="#576F75"/>
<path d="M22.9416 12.7016C25.4197 12.7016 27.4283 14.7101 27.4283 17.188C27.4283 19.666 25.4197 21.6745 22.9416 21.6745H11.2639C10.2679 21.678 9.45269 22.4659 9.41456 23.4519V29.2993C9.41456 31.7769 7.40593 33.7854 4.92861 33.7854C2.45065 33.7854 0.442017 31.7769 0.442017 29.2993V19.3481C0.442017 15.6775 3.41757 12.7014 7.0883 12.7014L22.9416 12.7016ZM31.5277 4.48644C31.5277 2.0088 33.5363 0 36.0141 0C38.4922 0 40.5005 2.0088 40.5005 4.48644V29.3307C40.5005 31.8086 38.4924 33.8171 36.0141 33.8171C33.5365 33.8171 31.5277 31.8085 31.5277 29.3307V4.48644ZM86.7457 24.9185L88.5487 24.914C88.7256 24.9138 88.8952 24.8435 89.0203 24.7183C89.1454 24.5932 89.2158 24.4236 89.2159 24.2466C89.2186 24.159 89.2026 24.0718 89.1687 23.9909L82.4648 12.7255L71.9917 30.8601C71.1826 32.2624 69.7299 33.0621 68.2222 33.1024C68.1773 33.1087 68.1319 33.1119 68.0865 33.1119H51.0423C47.3714 33.1119 44.3957 30.136 44.3957 26.4654V4.48676C44.3957 2.00896 46.4045 0.000161468 48.8821 0.000161468C51.3596 0.000161468 53.3685 2.00896 53.3685 4.4866V22.2892C53.3718 23.2857 54.1595 24.1014 55.1461 24.1385H64.6806C64.9258 24.0631 65.6758 23.8082 65.9042 23.4532L77.8799 2.72223C78.7887 1.16192 80.4791 0.111474 82.4139 0.111474C84.3496 0.111474 86.0403 1.16353 86.9451 2.72708L98.6146 22.3194C99.5149 23.4899 100.002 24.9256 99.9998 26.4023C99.9998 30.1079 96.9958 33.1116 93.2908 33.1116H79.6882C77.4248 33.1116 75.5916 31.2773 75.5916 29.0145C75.5916 26.7525 77.425 24.9185 79.6882 24.9185H86.7457Z" fill="#576F75"/>
</svg>
